<?xml version="1.0" encoding="iso-8859-1"?>
<!-- Generator: Adobe Illustrator 22.0.1, SVG Export Plug-In . SVG Version: 6.00 Build 0)  -->
<svg version="1.1" id="Layer_1" xmlns="http://www.w3.org/2000/svg" xmlns:xlink="http://www.w3.org/1999/xlink" x="0px" y="0px"
	 viewBox="0 0 21 28" style="enable-background:new 0 0 21 28;" xml:space="preserve">
<radialGradient id="SVGID_1_" cx="10.5" cy="14.5" r="10.5" gradientUnits="userSpaceOnUse">
	<stop  offset="0" style="stop-color:#FFFF00"/>
	<stop  offset="1" style="stop-color:#FFFFFF;stop-opacity:0"/>
</radialGradient>
<circle style="fill:url(#SVGID_1_);" cx="10.5" cy="14.5" r="10.5"/>
<path style="fill:#F4886B;" d="M17.494,23.184L10.856,4.583c-0.049-0.138-0.153-0.222-0.326-0.23c-0.147,0-0.277,0.093-0.325,0.232
	l-6.5,18.601c-0.053,0.152,0.006,0.32,0.141,0.406c0.057,0.036,0.121,0.054,0.185,0.054c0.088,0,0.176-0.034,0.242-0.099
	c4.156-4.089,8.297-4.088,12.659,0.005c0.116,0.109,0.292,0.125,0.426,0.037C17.492,23.503,17.548,23.335,17.494,23.184z"/>
</svg>
